# xmcd
#
# Track frame offsets: 
#        150
#        22125
#        38525
#        66125
#        90313
#        109776
#        130997
#        153047
#        173616
#        201441
#        224541
#        242016
#
# Disc length: 3481 seconds
#
# Revision: 0
# Processed by: cddbd v1.5.2PL0 Copyright (c) Steve Scherf et al.
# Submitted via: ExactAudioCopy v0.95a5
#
DISCID=9c0d970c
DTITLE=Jens Filser Blues Band - Picks and Licks
DYEAR=2008
DGENRE=Blues
TTITLE0=21 Days
TTITLE1=Don´t fight the Feeling
TTITLE2=Thank You Mr.Earl
TTITLE3=Blues run cold
TTITLE4=Catswing
TTITLE5=She´s over
TTITLE6=Fundamental
TTITLE7=As the Crow flies
TTITLE8=Morning Blue
TTITLE9=Feels like Rain
TTITLE10=`Round Midnight
TTITLE11=Fundamental (acuostic remix)
EXTD=
EXTT0=
EXTT1=
EXTT2=
EXTT3=
EXTT4=
EXTT5=
EXTT6=
EXTT7=
EXTT8=
EXTT9=
EXTT10=
EXTT11=
PLAYORDER=
